# xmcd
#
# Track frame offsets: 
#        150
#        53785
#        76790
#        97053
#        108565
#        139913
#        160471
#        184186
#        203786
#        227986
#        263328
#
# Disc length: 3859 seconds
#
# Revision: 0
# Processed by: cddbd v1.5.1PL0 Copyright (c) Steve Scherf et al.
# Submitted via: ExactAudioCopy v0.95a5
#
DISCID=940f110b
DTITLE=Rolling Stones - Specialties Of The House [CD2)
DYEAR=1994
DGENRE=Rock and Roll
TTITLE0=Miss You
TTITLE1=Honky Tonk Women
TTITLE2=Happy
TTITLE3=The Worst
TTITLE4=Sympathy For The Devil
TTITLE5=Monkey Man
TTITLE6=Street Fighting Man
TTITLE7=Start Me Up
TTITLE8=It's Only Rock 'n Roll
TTITLE9=Brown Sugar
TTITLE10=Jumping Jack Flash
EXTD=
EXTT0=
EXTT1=
EXTT2=
EXTT3=
EXTT4=
EXTT5=
EXTT6=
EXTT7=
EXTT8=
EXTT9=
EXTT10=
PLAYORDER=
